<svg width="16" height="18" viewBox="0 0 16 18" fill="none" xmlns="http://www.w3.org/2000/svg">
<path d="M14.4682 12.306C14.7664 12.3868 15.0335 12.5421 15.2447 12.7533C15.549 13.0576 15.7416 13.4801 15.7416 13.946C15.7416 14.412 15.549 14.8344 15.2447 15.1388C14.9403 15.4494 14.5179 15.6357 14.0519 15.6357H10.3619C10.2563 16.1141 10.014 16.5427 9.67855 16.8782C9.21258 17.3441 8.57275 17.6298 7.8708 17.6298C7.16885 17.6298 6.52901 17.344 6.06305 16.8782C5.72758 16.5427 5.4853 16.1141 5.37967 15.6357H1.68969C1.22373 15.6357 0.801307 15.4494 0.49694 15.1388C0.192574 14.8344 0 14.412 0 13.946C0 13.4801 0.192581 13.0576 0.49694 12.7533C0.708089 12.5421 0.975306 12.3868 1.27341 12.306C1.46599 11.6849 1.62745 10.9518 1.74551 10.2126C1.90698 9.23113 1.99404 8.24339 1.99404 7.50419C1.99404 5.88288 2.65258 4.41677 3.72098 3.34828C4.18694 2.88232 4.73356 2.49103 5.33615 2.19907C5.41695 1.64001 5.67779 1.13681 6.06294 0.751628C6.5289 0.285666 7.16874 0 7.87069 0C8.57264 0 9.21247 0.285795 9.67844 0.751628C10.0636 1.13678 10.3245 1.64001 10.4052 2.19907C11.0078 2.49101 11.5544 2.88244 12.0204 3.34828C13.0888 4.41671 13.7473 5.88282 13.7473 7.50419C13.7473 8.24339 13.8343 9.23113 13.9959 10.2126C14.1139 10.9518 14.2754 11.6849 14.468 12.306H14.4682ZM5.49808 7.21824C5.49808 7.52888 5.2434 7.78356 4.93276 7.78356C4.62212 7.78356 4.36744 7.52888 4.36744 7.21824C4.36744 6.33612 4.73392 5.52855 5.31164 4.94466C5.89553 4.36077 6.70311 4.00046 7.59149 4.00046C7.90213 4.00046 8.15055 4.24899 8.15055 4.56577C8.15055 4.87641 7.90201 5.12483 7.59149 5.12483C7.01374 5.12483 6.49196 5.36094 6.11307 5.73983C5.73419 6.11871 5.49808 6.64679 5.49808 7.21824ZM6.69697 1.74545C7.07585 1.66465 7.4673 1.62124 7.87102 1.62124C8.27474 1.62124 8.66619 1.66477 9.04507 1.74545C8.99539 1.67092 8.94571 1.60255 8.8836 1.54045C8.62265 1.28576 8.26861 1.12429 7.87102 1.12429C7.47344 1.12429 7.11939 1.28575 6.85844 1.54045C6.79634 1.60255 6.74666 1.67092 6.69697 1.74545H6.69697ZM9.18797 15.6355H6.55407C6.6286 15.8033 6.73423 15.9586 6.85844 16.0891C7.11939 16.3437 7.47343 16.5052 7.87102 16.5052C8.2686 16.5052 8.62265 16.3438 8.8836 16.0891C9.0078 15.9586 9.11344 15.8033 9.18797 15.6355ZM14.4495 13.5483C14.3502 13.4426 14.2073 13.3805 14.0519 13.3805C13.8221 13.3805 13.6047 13.2376 13.5239 13.0078C13.2505 12.2499 13.0331 11.3181 12.8841 10.3987C12.7102 9.34273 12.6231 8.29287 12.6231 7.50387C12.6231 6.19307 12.0889 5.00661 11.2254 4.14949C10.3618 3.28594 9.17537 2.75176 7.87098 2.75176C6.5666 2.75176 5.37999 3.28597 4.5166 4.14949C3.65305 5.00674 3.11887 6.19322 3.11887 7.50387C3.11887 8.29278 3.03192 9.3426 2.85791 10.3987C2.70886 11.2995 2.50387 12.2065 2.23678 12.9581C2.17467 13.2004 1.95725 13.3805 1.69016 13.3805C1.53484 13.3805 1.39821 13.4489 1.29257 13.5483C1.19321 13.6476 1.12484 13.7905 1.12484 13.9458C1.12484 14.1012 1.19321 14.2441 1.29257 14.3434C1.39821 14.4428 1.53484 14.5112 1.69016 14.5112H14.0521C14.2074 14.5112 14.3441 14.4428 14.4497 14.3434C14.5491 14.2441 14.6174 14.1012 14.6174 13.9458C14.6174 13.7905 14.5491 13.6476 14.4497 13.5483H14.4495Z" fill="white"/>
</svg>
